<svg enable-background="new 0 0 110 110" height="512" viewBox="0 0 110 110" width="512" xmlns="http://www.w3.org/2000/svg">
<path d="m78.6669083 23.9590969h-47.2352925c-2.3989258 0-4.343689 1.9445801-4.343689 4.34375v64.8759766c0 2.3989258 1.9447632 4.34375 4.343689 4.34375h47.2352905c2.3989868 0 4.343689-1.9448242 4.343689-4.34375v-64.8759766c.0000019-2.3991699-1.9447002-4.34375-4.343687-4.34375z" fill="#ededed"/>
<path d="m26.9894047 73.7100754v19.46875c0 2.3989258 1.9447632 4.34375 4.343689 4.34375h47.2352905c2.3989868 0 4.343689-1.9448242 4.343689-4.34375v-19.46875z" fill="#de594e"/>
<path d="m51.285046 57.642357h7.512024v8.830643h-7.512024z" fill="#d6b24e"/>
<path d="m70.836441 74.2906799c-.3128967-2.9726028-.7219543-4.7916336-.9908676-5.752594-.1597214-.5708389-.5017853-1.0690002-.9704361-1.4319611-3.9453812-3.0556183-9.8370819-4.8685074-9.8370819-4.8685074l-3.9893646 4.2354889v.0024109l-3.9882164-4.2342262s-5.891758 1.8128319-9.8370857 4.8685112c-.4686508.3629532-.8107109.8610611-.9704285 1.4319611-.2689171.9608383-.6779747 2.7799835-.9909286 5.752533-.5092392 4.8381958-.2545624 8.3182602-.2545624 8.3182602l16.0412216-.0036163h16.042366c0-.0000001.2546768-3.4801255-.2546158-8.3182603z" fill="#293b44"/>
<path d="m60.211834 62.6389809c-.7279434-.2643127-1.1736641-.4009399-1.1736641-.4009399l-3.9891396 4.2359962v.0014191l-3.9879646-4.2344894s-.4457207.1366272-1.1736641.4009399c-.5509872.1971054-1.2632637.4658737-2.0651131.8040886l.4817619 5.9982796.8434601 1.4205627.2219582 1.820076c1.8859406 7.2973633 5.6803589 9.9231262 5.6803589 9.9231262l.0003777.0003967c.0253181-.0176086 3.7999649-2.6536102 5.6795883-9.9264526l.2219582-1.8200989.8434372-1.4205627.4817581-5.9982529c-.8018494-.3382149-1.5141221-.6069832-2.0651131-.8040886z" fill="#dbd8dd"/>
<path d="m55.8614502 66.4729996h-1.7385979l-.8693008 1.4105606.8693008 2.4581528h1.7385979l.869297-2.4581528z" fill="#4abba4"/><path d="m58.8141937 61.354599-3.7655029 5.1185226 2.6339035 3.1519623 3.0456352-6.7805862z" fill="#ededed"/>
<path d="m51.2850456 61.3575325 3.7655068 5.1185265-2.6339035 3.1519622-3.0456353-6.7805862z" fill="#ededed"/>
<path d="m56.4644966 81.3013458-1.4142914 1.3070908-1.5267868-1.8106995.5801087-10.6629028h1.7772484z" fill="#4abba4"/>
<path d="m48.4068871 71.2136993-.6562805 1.3931885c1.8859406 7.2973404 7.299221 10.001152 7.299221 10.001152-4.7036285-6.9793015-5.1266022-18.3198624-5.1624222-19.9661255-.0044823-.1321411-.0044823-.2015877-.0044823-.2015877l-2.060627 1.0056763-.8086014 6.7844353z" fill="#344d5b"/>
<path d="m61.6923561 71.210762.6562805 1.3931885c-1.8859406 7.2973404-7.2996063 10.0053101-7.2996063 10.0053101 4.7036285-6.9793015 5.1269875-18.3240128 5.1628036-19.9702797.0044861-.1321449.0044861-.2015915.0044861-.2015915l2.060627 1.0056801.8086014 6.7844315z" fill="#344d5b"/>
<path d="m63.4794197 50.9799652c-.5404053-.1046562-1.1328545.6074944-1.3232346 1.5905685-.1903915.9831276.0933647 1.8649597.63377 1.9696159.5404282.10466 1.1328545-.6074944 1.3232422-1.5906219.1903839-.9830741-.0933532-1.8649025-.6337776-1.9695625z" fill="#feda6f"/>
<path d="m46.7415962 50.9799652c.5404015-.1046562 1.1328506.6074944 1.3232346 1.5905685.1903877.9831276-.0933685 1.8649597-.6337738 1.9696159-.5404282.10466-1.1328545-.6074944-1.3232422-1.5906219-.1903839-.9830741.0933494-1.8649025.6337814-1.9695625z" fill="#feda6f"/>
<path d="m63.0406647 49.3385773c0 .8875771.3953438 1.8440475.1373558 2.8553276-1.0731926 4.3237686-4.2825737 9.1636276-8.0697746 9.1636276-3.745945 0-6.9140053-4.6952477-8.0284576-8.967617-.2889709-1.0834618-.4437256-2.1360626-.4437256-3.075161 0-4.5197754 3.9987984-5.1572952 8.4670525-5.4049492.1238251-.0103302-.0717926-.9511604.0520325-.9511604l-.0258179.5721855c.1857414 0 .5399208-.9662971.7256622-.9559708.1547508.0103302.2628937 1.0065308.4176483 1.0271873.0928993 0-.3750343-.6074944-.282196-.5869637 4.0658454.6294671 7.0502204 2.0822374 7.0502204 6.3234941z" fill="#fcd462"/><g fill="#344d5b">
<path d="m64.0069733 44.9192352c-.4637604-2.7826042-3.2713776-1.9267731-3.2713776-1.9267731l-.0035324.0069656c-.0018806-.0017281-.0037384-.0033569-.0056419-.005085l.0091743-.0018806s.5726891-.5744667-.2075615-2.1395988c-.7802773-1.5650826-4.7140541-2.6054153-8.4852867-1.5650826-3.7712555 1.04039-5.4371834 3.4146233-6.0873795 7.4134789-.5440369 3.3458328.6064224 5.0702515.997654 5.5457802l.5200424 1.6421089h.4558258l1.1027832-6.2776527c2.2156105-1.6108398 7.0442924-.7741508 10.3547897-3.3515511.5208054 2.0561676-.434185 2.9414673 2.4251366 7.7007523l.3889961 1.9284515h.4558258l.4247627-1.3412743c.0013962.0005608.0026436.0011711.0040398.0017281.8091813-2.2893791 1.3855324-4.8477135.9217492-7.6303673z"/>
<path d="m42.006683 86.472763h1.02848v7.285069h-1.02848z"/><path d="m47.164917 86.472763h.51424v7.285069h-.51424z"/>
<path d="m44.293751 86.472763h1.766035v7.285069h-1.766035z"/>
<path d="m48.883881 86.472763h1.02848v7.285069h-1.02848z"/>
<path d="m54.04211 86.472763h.51424v7.285069h-.51424z"/>
<path d="m51.170944 86.472763h1.766035v7.285069h-1.766035z"/>
<path d="m55.345127 86.472763h1.02848v7.285069h-1.02848z"/>
<path d="m60.503361 86.472763h.51424v7.285069h-.51424z"/>
<path d="m57.632195 86.472763h1.766035v7.285069h-1.766035z"/>
<path d="m62.222321 86.472763h1.02848v7.285069h-1.02848z"/>
<path d="m67.380554 86.472763h.51424v7.285069h-.51424z"/>
<path d="m64.509384 86.472763h1.766035v7.285069h-1.766035z"/>
<path d="m47.025078 29.936297h16.048368v2.528916h-16.048368z"/></g>
<path d="m48.097664 12.477427h13.872554v18.723328h-13.872554z" fill="#de594e"/>
<path d="m55.0339088 15.3817043c-1.9619141 0-3.5523682 1.5905762-3.5523682 3.5524902s1.5904541 3.5524902 3.5523682 3.5524902 3.5524292-1.5905762 3.5524292-3.5524902-1.5905151-3.5524902-3.5524292-3.5524902z" fill="#ededed"/></svg>