<svg id="Capa_1" enable-background="new 0 0 512 512" height="512" viewBox="0 0 512 512" width="512" xmlns="http://www.w3.org/2000/svg"><g><g><path d="m231.756 100.436h48.488l-64.65-92.935h-48.488z" fill="#000"/></g><g>
<path d="m280.244 100.436h-48.488l64.65-92.935h48.488z" fill="#000"/></g><g>
<path d="m367.118 504.5h-222.236c-16.737 0-30.305-13.568-30.305-30.305v-343.455c0-16.737 13.568-30.305 30.305-30.305h222.235c16.737 0 30.305 13.568 30.305 30.305v343.455c.001 16.737-13.567 30.305-30.304 30.305z" fill="#fff"/></g><g>
<path d="m367.118 100.436h-24.244c16.737 0 30.305 13.568 30.305 30.305v343.455c0 16.737-13.568 30.305-30.305 30.305h24.244c16.737 0 30.305-13.568 30.305-30.305v-343.456c0-16.736-13.568-30.304-30.305-30.304z" fill="#fff"/></g><g>
<path d="m146.903 203.472h218.195v169.707h-218.195z" fill="#ddd" transform="matrix(0 1 -1 0 544.326 32.326)"/></g><g><g>
<circle cx="256" cy="262.061" fill="#f1d0a5" r="50.508"/></g><g>
<path d="m281.122 218.251c4.253 7.401 6.698 15.973 6.698 25.122 0 27.895-22.613 50.508-50.508 50.508-9.149 0-17.721-2.445-25.122-6.698 8.715 15.165 25.064 25.386 43.81 25.386 27.895 0 50.508-22.613 50.508-50.508 0-18.746-10.221-35.094-25.386-43.81z" fill="#f1b986"/></g><g>
<path d="m171.146 352.976v44.447h169.707v-44.447c0-22.316-18.091-40.406-40.406-40.406h-88.894c-22.316-.001-40.407 18.09-40.407 40.406z" fill="#0053b8"/></g><g>
<path d="m300.447 312.569h-24.244c22.316 0 40.406 18.091 40.406 40.406v44.447h24.244v-44.447c.001-22.315-18.09-40.406-40.406-40.406z" fill="#0053b8"/></g></g><g><path d="m171.146 429.748h169.707v32.325h-169.707z" fill="#8c8c8c"/></g>
<g><path d="m215.594 100.436h80.813v32.325h-80.813z" fill="#000"/></g><g>
<path d="m367.12 92.931h-72.519l56.45-81.147c2.365-3.4 1.526-8.075-1.874-10.44-3.401-2.366-8.075-1.526-10.44 1.874l-62.409 89.713h-30.215l56.45-81.147c2.365-3.4 1.526-8.075-1.874-10.44-3.401-2.366-8.075-1.526-10.44 1.874l-34.249 49.234-34.25-49.234c-2.365-3.399-7.039-4.24-10.44-1.874-3.4 2.365-4.239 7.04-1.874 10.44l37.427 53.801-15.108 21.717-58.493-84.084c-2.365-3.399-7.038-4.24-10.44-1.874-3.4 2.365-4.239 7.04-1.874 10.44l56.45 81.147h-72.518c-20.843 0-37.8 16.961-37.8 37.81v226.449c0 4.142 3.358 7.5 7.5 7.5s7.5-3.358 7.5-7.5v-226.449c0-12.578 10.228-22.81 22.8-22.81h63.213v24.83c0 4.142 3.358 7.5 7.5 7.5h80.813c4.142 0 7.5-3.358 7.5-7.5v-24.83h63.213c12.572 0 22.8 10.232 22.8 22.81v30.99c0 4.142 3.358 7.5 7.5 7.5s7.5-3.358 7.5-7.5v-30.99c.001-20.849-16.956-37.81-37.799-37.81zm-78.213 32.33h-65.813v-17.325h65.813z"/>
<path d="m397.42 189.231c-4.142 0-7.5 3.358-7.5 7.5v277.469c0 12.572-10.228 22.8-22.8 22.8h-222.24c-12.572 0-22.8-10.228-22.8-22.8v-82.01c0-4.142-3.358-7.5-7.5-7.5s-7.5 3.358-7.5 7.5v82.01c0 20.843 16.957 37.8 37.8 37.8h222.24c20.843 0 37.8-16.957 37.8-37.8v-277.47c0-4.142-3.358-7.499-7.5-7.499z"/><path d="m171.147 404.923h169.707c4.142 0 7.5-3.358 7.5-7.5v-218.195c0-4.142-3.358-7.5-7.5-7.5h-169.707c-4.142 0-7.5 3.358-7.5 7.5v218.195c0 4.142 3.358 7.5 7.5 7.5zm162.206-15h-27.427v-12.703c0-4.142-3.358-7.5-7.5-7.5s-7.5 3.358-7.5 7.5v12.703h-69.853v-12.703c0-4.142-3.358-7.5-7.5-7.5s-7.5 3.358-7.5 7.5v12.703h-27.427v-36.947c0-18.145 14.762-32.906 32.906-32.906h88.894c18.145 0 32.906 14.762 32.906 32.906v36.947zm-120.361-127.862c0-23.715 19.293-43.008 43.008-43.008s43.008 19.293 43.008 43.008-19.293 43.009-43.008 43.009-43.008-19.294-43.008-43.009zm120.361-75.333v131.48c-8.59-8.134-20.171-13.139-32.906-13.139h-5.565c11.738-10.622 19.126-25.968 19.126-43.008 0-31.986-26.022-58.008-58.008-58.008s-58.008 26.022-58.008 58.008c0 17.04 7.388 32.386 19.126 43.008h-5.565c-12.735 0-24.317 5.005-32.906 13.139v-131.48z"/><path d="m163.647 462.073c0 4.142 3.358 7.5 7.5 7.5h169.707c4.142 0 7.5-3.358 7.5-7.5v-32.325c0-4.142-3.358-7.5-7.5-7.5h-169.707c-4.142 0-7.5 3.358-7.5 7.5zm15-24.825h154.707v17.325h-154.707z"/>
</g>
</g>
</svg>