<?xml version="1.0" encoding="iso-8859-1"?>
<!-- Generator: Adobe Illustrator 19.0.0, SVG Export Plug-In . SVG Version: 6.00 Build 0)  -->
<svg version="1.1" id="Capa_1" xmlns="http://www.w3.org/2000/svg" xmlns:xlink="http://www.w3.org/1999/xlink" x="0px" y="0px"
	 viewBox="0 0 480 480" style="enable-background:new 0 0 480 480;" xml:space="preserve">
<g>
	<g>
		<path style="fill:#FFF;" d="M386.816,323.456l-69.984-14.016c-7.424-1.472-12.832-8.064-12.832-15.68v-16.064c4.608-6.4,8.928-14.944,13.408-23.872
			c3.424-6.752,8.576-16.928,10.88-19.328c13.568-13.28,28.032-29.76,32.448-51.232c4-19.456,0-29.568-4.64-37.568
			c0-15.648,0-44.288-5.44-64.928c-0.544-24.928-5.12-39.008-16.608-51.552c-8.128-8.768-20.096-10.816-29.696-12.448
			c-3.808-0.64-9.024-1.536-10.848-2.528C276.896,5.056,260.032,0.512,239.392,0c-42.24,1.6-94.08,28.384-111.424,76.544
			c-5.28,14.624-4.768,38.624-4.384,57.92l-0.448,11.232c-4.064,8-8.064,18.112-4.032,37.536
			c4.416,21.568,18.88,38.016,32.384,51.232c2.336,2.432,7.552,12.672,11.008,19.424c4.544,8.896,8.896,17.44,13.504,23.84v16.032
			c0,7.616-5.408,14.208-12.864,15.68l-69.984,14.016C48.448,332.384,16,371.968,16,417.568V448c0,17.632,14.368,32,32,32h384
			c17.632,0,32-14.368,32-32v-30.432C464,371.968,431.552,332.384,386.816,323.456z"/>
	</g>
</g>
</svg>
